<?xml version="1.0" encoding="utf-8"?>
<!-- Generator: Adobe Illustrator 24.1.1, SVG Export Plug-In . SVG Version: 6.00 Build 0)  -->
<svg version="1.1" id="katman_1" xmlns="http://www.w3.org/2000/svg" xmlns:xlink="http://www.w3.org/1999/xlink" x="0px" y="0px"
	 viewBox="0 0 175 175" style="enable-background:new 0 0 175 175;" xml:space="preserve">
<style type="text/css">
	.st0{fill:#000A09;}
	.st1{fill:#CAA472;}
	.st2{fill:#FFFFFF;}
	.st3{fill:#E30613;}
	.st4{fill:#1D1D1B;}
	.st5{fill:#020000;}
</style>
<g>
	<path class="st0" d="M175,87.5c0,48.37-39.2,87.5-87.5,87.5C39.13,175,0,135.8,0,87.5C0,39.13,39.2,0,87.5,0
		C135.87-0.07,175,39.13,175,87.5"/>
	<path class="st1" d="M87.5,168.89c-44.89,0-81.39-36.51-81.39-81.39S42.61,6.11,87.5,6.11s81.39,36.51,81.39,81.39
		S132.39,168.89,87.5,168.89 M87.5,7.81C43.61,7.81,7.81,43.54,7.81,87.5c0,43.89,35.72,79.69,79.69,79.69
		c43.89,0,79.69-35.72,79.69-79.69C167.19,43.54,131.39,7.81,87.5,7.81"/>
	<path class="st2" d="M69.82,147.16v-9.94h0.99c1.21,0,2.13-0.28,2.77-0.85c0.57-0.57,0.85-1.56,0.85-2.84v-3.55
		c0-1.35-0.28-2.27-0.85-2.91c-0.57-0.57-1.49-0.92-2.77-0.92h-3.34v20.95h2.34V147.16z M72.09,133.52c0,0.92-0.43,1.42-1.28,1.42
		h-0.99v-6.39h0.92c0.5,0,0.85,0.14,0.99,0.36c0.21,0.21,0.28,0.57,0.28,1.07v3.55H72.09z"/>
	<path class="st2" d="M79.76,126.21h-2.13v3.2h2.13V126.21z M79.76,131.39h-2.13v15.77h2.13V131.39z"/>
	<polygon class="st2" points="89.7,147.16 89.7,144.74 85.51,144.74 89.7,128.27 89.7,126.21 83.24,126.21 83.24,128.48 
		87.36,128.48 83.1,144.74 83.1,147.16 	"/>
	<polygon class="st2" points="98.65,147.16 98.65,144.74 94.46,144.74 98.65,128.27 98.65,126.21 92.19,126.21 92.19,128.48 
		96.38,128.48 92.05,144.74 92.05,147.16 	"/>
	<path class="st2" d="M108.95,147.16l-2.56-20.95h-2.7l-2.7,20.95h2.27c0.07-0.57,0.14-1.14,0.21-1.63c0.07-0.5,0.14-1.07,0.21-1.63
		h2.56l0.43,3.2h2.27V147.16z M103.84,141.76c0.21-1.56,0.36-3.13,0.57-4.69c0.21-1.56,0.36-3.2,0.5-4.83
		c0.14,1.63,0.36,3.2,0.5,4.76c0.14,1.56,0.36,3.13,0.57,4.76L103.84,141.76L103.84,141.76z"/>
	<polygon class="st3" points="134.02,137.78 112.86,137.78 112.86,135.51 136.36,135.51 	"/>
	<polygon class="st3" points="40.98,137.78 62.14,137.78 62.14,135.51 38.64,135.51 	"/>
	<path class="st2" d="M32.46,82.39c0-1.42-0.28-2.13-1.56-3.76c-1.49-1.7-3.55-3.27-4.83-4.9c-1.42-1.49-1.7-2.84-1.7-5.33v-3.34
		c0-4.47,1.99-6.25,5.75-6.25c4.4,0,5.75,1.92,5.75,6.25v5.33h-3.34v-5.33c0-1.63-1.07-2.63-2.34-2.63c-1.56,0-2.34,0.92-2.34,2.63
		v3.84c0,1.49,0.28,2.13,1.49,3.41c1.42,1.49,3.34,2.91,4.69,4.4c1.63,1.92,2.06,3.41,2.06,6.18v3.55c0,4.12-1.99,5.89-6.04,5.89
		c-3.76,0-5.68-1.99-5.68-6.04v-5.33h3.27v5.18c0,1.63,1.07,2.63,2.49,2.63c1.56,0,2.34-0.92,2.34-2.63L32.46,82.39L32.46,82.39z"/>
	<path class="st2" d="M47.16,78.55h3.41v7.17c0,4.33-1.92,6.53-5.82,6.53c-3.69,0-5.61-2.2-5.61-6.53V65.48
		c0-4.4,1.99-6.68,5.61-6.68c3.91,0,5.82,2.2,5.82,6.68v10.44h-8.1v9.8c0,1.92,0.71,2.91,2.27,2.91c1.63,0,2.41-0.92,2.41-2.91
		L47.16,78.55L47.16,78.55z M47.16,65.48c0-1.92-0.78-2.91-2.41-2.91c-1.49,0-2.27,0.92-2.27,2.91v7.81h4.69L47.16,65.48
		L47.16,65.48z"/>
	<path class="st2" d="M57.24,91.83L52.49,59.3h3.62c1.14,7.88,2.49,19.39,2.91,23.58c0.43-4.12,1.99-15.77,3.27-23.58h3.48
		l-4.9,32.53H57.24z"/>
	<path class="st2" d="M75.92,78.55h3.41v7.17c0,4.33-1.92,6.53-5.82,6.53c-3.69,0-5.61-2.2-5.61-6.53V65.48
		c0-4.4,1.99-6.68,5.61-6.68c3.91,0,5.82,2.2,5.82,6.68v10.44h-8.1v9.8c0,1.92,0.71,2.91,2.27,2.91c1.63,0,2.41-0.92,2.41-2.91
		V78.55z M75.92,65.48c0-1.92-0.78-2.91-2.41-2.91c-1.49,0-2.27,0.92-2.27,2.91v7.81h4.69L75.92,65.48L75.92,65.48z"/>
	<path class="st2" d="M91.41,91.83V64.99c0-1.92-0.57-2.63-2.13-2.63c-1.07,0-2.2,0.57-2.77,1.99v27.49h-3.62V59.3h3.05
		c0.07,0.78,0.14,1.63,0.14,2.49c0.99-1.85,2.63-2.98,4.69-2.98c2.91,0,4.26,1.85,4.26,5.97v27.06H91.41z"/>
	<path class="st2" d="M106.25,92.05c-0.36,0.14-1.14,0.28-1.7,0.28c-3.84,0-5.75-2.49-5.75-6.75V62.5H97.3v-3.2h1.49v-10.3h3.62
		v10.3h3.69v3.2h-3.69v23.01c0,2.7,0.85,3.62,3.12,3.62c0.21,0,0.5,0,0.71-0.07V92.05z"/>
	<path class="st2" d="M116.48,78.55h3.41v7.17c0,4.33-1.92,6.53-5.82,6.53c-3.69,0-5.61-2.2-5.61-6.53V65.48
		c0-4.4,1.99-6.68,5.61-6.68c3.91,0,5.82,2.2,5.82,6.68v10.44h-8.1v9.8c0,1.92,0.71,2.91,2.27,2.91c1.63,0,2.41-0.92,2.41-2.91
		V78.55z M116.48,65.48c0-1.92-0.78-2.91-2.41-2.91c-1.49,0-2.27,0.92-2.27,2.91v7.81h4.69L116.48,65.48L116.48,65.48z"/>
	<path class="st2" d="M131.18,78.55h3.41v7.17c0,4.33-1.92,6.53-5.82,6.53c-3.69,0-5.61-2.2-5.61-6.53V65.48
		c0-4.4,1.99-6.68,5.61-6.68c3.91,0,5.82,2.2,5.82,6.68v10.44h-8.1v9.8c0,1.92,0.71,2.91,2.27,2.91c1.63,0,2.41-0.92,2.41-2.91
		V78.55z M131.18,65.48c0-1.92-0.78-2.91-2.41-2.91c-1.49,0-2.27,0.92-2.27,2.91v7.81h4.69V65.48L131.18,65.48z"/>
	<path class="st2" d="M146.66,91.83V64.99c0-1.92-0.57-2.63-2.13-2.63c-1.07,0-2.2,0.57-2.77,1.99v27.49h-3.62V59.3h3.05
		c0.07,0.78,0.14,1.63,0.14,2.49c0.99-1.85,2.63-2.98,4.69-2.98c2.91,0,4.26,1.85,4.26,5.97v27.06H146.66z"/>
	<path class="st3" d="M82.32,21.16c2.34,2.2-3.41,8.17,0.43,12.71c-1.85-7.32,5.47-12.64,3.84-17.19c6.18,2.7,4.26,9.73,6.11,13.71
		c-0.14-3.55,0.64-5.33,2.41-6.39c-1.42,2.84,6.04,8.52,4.26,14.99c-0.71,2.7-2.34,4.62-4.4,5.89c-0.28-5.68-6.82-9.37-6.25-14.42
		c-2.34,2.49-4.47,8.52,0.5,15.62c-1.7-0.5-5.89-3.12-6.53-6.53c-0.43,2.49-0.43,4.69,0.36,6.61c-3.13-0.92-5.68-2.84-6.75-5.4
		C72.37,31.39,82.46,23.3,82.32,21.16"/>
	<path class="st4" d="M143.82,124.93c-38.99-7.88-73.65-7.88-112.64,0l-5.89-16.9c42.76-8.95,81.68-8.95,124.43,0"/>
	<path class="st1" d="M26.78,104.9c41.76-8.95,79.76-8.95,121.52,0l-5.75,16.9c-38.07-7.88-71.95-7.88-109.94,0L26.78,104.9z"/>
	<path class="st5" d="M51.7,109.23c-0.21-1.63-0.28-2.91-0.21-3.84c0.14-1.63,0.78-2.49,1.85-2.63s1.85,0.57,2.34,2.13
		c0.28,0.85,0.57,2.13,0.71,3.76c0.21,1.63,0.21,2.91,0.14,3.84c-0.14,1.63-0.78,2.49-1.78,2.63c-0.99,0.14-1.78-0.57-2.34-2.13
		C52.13,112.14,51.92,110.87,51.7,109.23 M54.69,114.2c0.85-0.07,1.14-1.92,0.71-5.4c-0.43-3.48-1.07-5.18-1.99-5.11
		c-0.92,0.14-1.14,1.92-0.71,5.4C53.13,112.64,53.84,114.28,54.69,114.2"/>
	<path class="st5" d="M62.14,103.98c0.36,0.78,0.57,2.13,0.71,4.05c0.14,1.92,0.14,3.34,0,4.12c-0.28,1.35-1.14,2.06-2.41,2.2
		c-0.43,0.07-0.78,0.07-1.21,0.14c-0.43-4.05-0.85-8.03-1.21-12.07c0.43-0.07,0.85-0.07,1.28-0.14
		C60.58,102.13,61.58,102.77,62.14,103.98 M61.86,111.65c0.14-0.64,0.14-1.85-0.07-3.48c-0.14-1.7-0.36-2.84-0.57-3.48
		c-0.43-1.07-1.07-1.56-2.06-1.42c-0.07,0-0.07,0-0.14,0c0.36,3.41,0.64,6.82,0.99,10.23c0.07,0,0.07,0,0.14,0
		C61.15,113.35,61.72,112.78,61.86,111.65"/>
	<path class="st5" d="M65.27,108.03c-0.14-2.06-0.36-4.12-0.5-6.18c0.36,0,0.71-0.07,1.07-0.07c0.14,2.06,0.28,4.12,0.5,6.18
		c0.14,1.63,0.28,2.84,0.5,3.55c0.28,0.99,0.71,1.49,1.21,1.42c0.5-0.07,0.85-0.57,0.99-1.56c0.07-0.78,0.07-1.99,0-3.62
		c-0.14-2.06-0.28-4.12-0.43-6.18c0.36,0,0.71-0.07,1.07-0.07c0.14,2.06,0.28,4.12,0.36,6.18c0.07,1.63,0.07,2.91-0.07,3.76
		c-0.28,1.56-0.85,2.34-1.85,2.41c-0.99,0.07-1.7-0.64-2.2-2.13C65.63,110.87,65.41,109.66,65.27,108.03"/>
	<path class="st5" d="M76.56,101.14c0.14,4.05,0.28,8.1,0.5,12.14c-0.36,0-0.64,0-0.99,0.07c-0.07-1.92-0.14-3.84-0.21-5.75
		c-0.92-1.49-1.85-2.98-2.77-4.4c0.14,3.41,0.36,6.89,0.5,10.3c-0.36,0-0.64,0-0.99,0.07c-0.21-4.05-0.43-8.1-0.64-12.14
		c0.36,0,0.71-0.07,1.07-0.07c0.92,1.49,1.85,2.91,2.77,4.4c-0.07-1.49-0.14-3.05-0.21-4.55C75.92,101.14,76.21,101.14,76.56,101.14
		"/>
	<path class="st5" d="M86.72,109.02c-0.57,0-1.14,0-1.7,0c-0.14,1.35-0.36,2.7-0.5,4.05c-0.36,0-0.64,0-0.99,0
		c0.57-4.05,1.14-8.1,1.78-12.14c0.36,0,0.78,0,1.14,0c0.64,4.05,1.28,8.1,1.92,12.14c-0.36,0-0.64,0-0.99,0
		C87.07,111.72,86.93,110.37,86.72,109.02 M86.65,108.24c-0.28-1.85-0.5-3.76-0.78-5.61c-0.21,1.92-0.5,3.76-0.71,5.68
		C85.58,108.24,86.15,108.24,86.65,108.24"/>
	<path class="st5" d="M93.25,101.92c-0.43,0-0.92,0-1.35,0c-0.07,3.76-0.07,7.46-0.14,11.22c-0.36,0-0.64,0-0.99,0
		c0.07-3.76,0.07-7.46,0.14-11.22c-0.43,0-0.92,0-1.35,0c0-0.28,0-0.64,0-0.92c1.28,0,2.56,0,3.76,0.07
		C93.25,101.28,93.25,101.56,93.25,101.92"/>
	<path class="st5" d="M96.02,101.99c0,1.07-0.07,2.13-0.07,3.2c0.57,0,1.14,0,1.7,0.07c0,0.28,0,0.64,0,0.92
		c-0.57,0-1.14-0.07-1.7-0.07c-0.07,2.06-0.14,4.05-0.14,6.11c0.57,0,1.21,0.07,1.78,0.07c0,0.28,0,0.64,0,0.92
		c-0.92,0-1.85-0.07-2.77-0.07c0.07-4.05,0.21-8.1,0.28-12.14c0.99,0,1.92,0.07,2.91,0.07c0,0.28,0,0.64,0,0.92
		C97.3,101.99,96.66,101.99,96.02,101.99"/>
	<path class="st5" d="M100.43,107.24c-0.99-1.21-1.42-2.13-1.42-2.84c0.07-0.57,0.21-1.07,0.36-1.49c0.5-0.99,1.21-1.63,2.27-1.85
		c0.14,0.28,0.36,0.57,0.5,0.85c-1.28,0.07-1.99,0.92-2.13,2.56c0,0.36,0.21,0.85,0.64,1.49c0.28,0.36,0.57,0.78,0.85,1.14
		c0.71,1.07,1.07,2.06,0.99,2.98c-0.07,0.57-0.21,1.07-0.43,1.49c-0.5,0.99-1.35,1.63-2.49,1.85c-0.14-0.28-0.36-0.57-0.5-0.85
		c0.92-0.07,1.63-0.5,2.06-1.35c0.21-0.36,0.28-0.78,0.36-1.28C101.63,109.16,101.28,108.24,100.43,107.24"/>
	<path class="st5" d="M105.04,113.57c-0.36,0-0.64-0.07-0.99-0.07c0.21-3.12,0.36-6.18,0.57-9.3c0.36,0,0.71,0.07,1.07,0.07
		C105.4,107.39,105.18,110.44,105.04,113.57"/>
	<path class="st5" d="M105.61,103.41c-0.36,0-0.71-0.07-1.07-0.07c0.07-0.71,0.07-1.42,0.14-2.13c0.36,0,0.71,0.07,1.07,0.07
		C105.75,101.99,105.68,102.7,105.61,103.41"/>
	<path d="M99.72,115.06c-0.14-0.28-0.28-0.64-0.43-0.92c0.5-0.21,1.07-0.43,1.56-0.64c0.07,0.21,0.14,0.43,0.28,0.64
		C100.71,114.42,100.21,114.77,99.72,115.06"/>
	<path class="st5" d="M112.78,101.99c-0.36,4.05-0.71,8.03-1.07,12.07c-0.36,0-0.64-0.07-0.99-0.07c0.14-1.92,0.28-3.84,0.5-5.75
		c-0.71-1.56-1.49-3.2-2.2-4.76c-0.28,3.41-0.5,6.89-0.78,10.3c-0.36,0-0.64-0.07-0.99-0.07c0.28-4.05,0.57-8.1,0.85-12.07
		c0.36,0,0.71,0.07,1.07,0.07c0.78,1.56,1.49,3.12,2.27,4.76c0.14-1.49,0.21-3.05,0.36-4.55
		C112.07,101.92,112.43,101.92,112.78,101.99"/>
	<path class="st5" d="M118.89,104.55c0.14,0.78,0.14,2.2-0.07,4.12c-0.21,1.92-0.5,3.27-0.78,4.05c-0.57,1.28-1.49,1.85-2.84,1.7
		c-0.43-0.07-0.78-0.07-1.21-0.14c0.36-4.05,0.78-8.03,1.14-12.07c0.43,0.07,0.85,0.07,1.28,0.14
		C117.76,102.41,118.61,103.2,118.89,104.55 M117.19,112c0.28-0.64,0.5-1.78,0.64-3.48c0.14-1.7,0.21-2.84,0.07-3.48
		c-0.21-1.14-0.78-1.7-1.7-1.78c-0.07,0-0.07,0-0.14,0c-0.36,3.41-0.64,6.82-0.99,10.23c0.07,0,0.07,0,0.07,0
		C116.12,113.49,116.76,113.07,117.19,112"/>
	<path class="st5" d="M122.66,103.91c-0.14,1.07-0.28,2.13-0.36,3.2c0.57,0.07,1.14,0.14,1.7,0.21c-0.07,0.28-0.07,0.64-0.14,0.92
		c-0.57-0.07-1.14-0.14-1.7-0.21c-0.21,1.99-0.5,4.05-0.71,6.04c0.57,0.07,1.21,0.14,1.78,0.21c-0.07,0.28-0.07,0.64-0.14,0.92
		c-0.92-0.14-1.85-0.21-2.77-0.36c0.5-4.05,0.92-8.03,1.42-12.07c0.99,0.14,1.92,0.21,2.91,0.36c-0.07,0.28-0.07,0.64-0.14,0.92
		C123.86,104.05,123.3,103.98,122.66,103.91"/>
</g>
</svg>
