<?xml version="1.0" encoding="utf-8"?>
<!-- Generator: Adobe Illustrator 24.1.1, SVG Export Plug-In . SVG Version: 6.00 Build 0)  -->
<svg version="1.1" id="katman_1" xmlns="http://www.w3.org/2000/svg" xmlns:xlink="http://www.w3.org/1999/xlink" x="0px" y="0px"
	 viewBox="0 0 364 364" style="enable-background:new 0 0 364 364;" xml:space="preserve">
<style type="text/css">
	.st0{fill:#E30613;}
</style>
<circle cx="182" cy="182" r="182"/>
<path class="st0" d="M133.09,85.32c22.08,20.74-32.12,76.94,4.01,119.77c-17.4-68.92,51.52-119.1,36.13-161.92
	c58.21,25.43,40.15,91.66,57.54,129.13c-1.34-33.45,6.02-50.18,22.75-60.22c-13.38,26.76,56.87,80.29,40.15,141.18
	c-6.69,25.43-22.08,43.49-41.48,55.53c-2.68-53.53-64.23-88.32-58.88-135.82c-22.08,23.42-42.15,80.29,4.68,147.2
	c-16.06-4.68-55.53-29.44-61.56-61.56c-4.01,23.42-4.01,44.16,3.35,62.23c-29.44-8.7-53.53-26.76-63.56-50.85
	C39.42,181.67,134.43,105.39,133.09,85.32"/>
</svg>
